<svg xmlns="http://www.w3.org/2000/svg" xmlns:xlink="http://www.w3.org/1999/xlink" width="220" height="85" viewBox="0 0 220 85"><defs><linearGradient id="a" x1="70.37" y1="58.13" x2="115.16" y2="58.13" gradientTransform="matrix(1, 0, 0, -1, 0, 86)" gradientUnits="userSpaceOnUse"><stop offset="0" stop-color="#6964ee"/><stop offset="0.67" stop-color="#9b92ff"/></linearGradient></defs><title>Boxl Logo for Website</title><rect x="-49.47" y="-31.54" width="323.47" height="154.26" fill="none"/><path d="M92.62,36.14c-7.21-2.7-15.05-5.42-22.25-8.12,7.3-2.71,15.25-5.7,22.54-8.42,7.42,2.62,14.84,5.51,22.25,8.12Z" fill-rule="evenodd" fill="url(#a)"/><circle cx="92.23" cy="12.34" r="5.4" fill="#333"/><circle cx="92.29" cy="12.41" r="1.36" fill="#fff" stroke="#fff" stroke-miterlimit="10"/><rect x="90.16" y="15.18" width="4.37" height="11.34" fill="#333"/><circle cx="64.83" cy="67.11" r="5.4" fill="#333"/><circle cx="64.83" cy="67.02" r="1.36" fill="#fff" stroke="#fff" stroke-miterlimit="10"/><rect x="65.27" y="59.03" width="11.34" height="4.37" transform="translate(-22.68 65.12) rotate(-43.18)" fill="#333"/><circle cx="119.65" cy="66.89" r="5.4" fill="#333"/><circle cx="119.65" cy="66.8" r="1.36" fill="#fff" stroke="#fff" stroke-miterlimit="10"/><rect x="111.36" y="55.3" width="4.37" height="11.34" transform="translate(-8.61 102.05) rotate(-46.82)" fill="#333"/><path d="M118.78,31.18l-17.93-6.71,1.44-3.89,14.06,5.25a4.15,4.15,0,0,1,2.43,5.34Z" fill="#333" fill-rule="evenodd"/><path d="M94.48,71.22H90.35V38.89H93a1.54,1.54,0,0,1,1.53,1.53v30.8Z" fill="#333" fill-rule="evenodd"/><path d="M78.2,68l1.45-3.85L94,69.48h0a4.09,4.09,0,0,1-5.26,2.43l0,0Z" fill="#333" fill-rule="evenodd"/><path d="M93.86,36.26l-1.45,3.87L67,30.61l.58-1.56a2.42,2.42,0,0,1,3.09-1.45l0,0Z" fill="#333" fill-rule="evenodd"/><path d="M66.24,31.39l17.92-6.71-1.47-3.89L68.67,26a4.18,4.18,0,0,0-2.44,5.35Z" fill="#333" fill-rule="evenodd"/><path d="M68.84,27.07V52.48H64.69V31.23a4.14,4.14,0,0,1,4.13-4.16Z" fill="#333" fill-rule="evenodd"/><path d="M115.64,27V52.33h4.17V31.13A4.18,4.18,0,0,0,115.64,27Z" fill="#333" fill-rule="evenodd"/><path d="M106.3,68l-1.5-3.8L90.44,69.54h0A4.12,4.12,0,0,0,95.74,72Z" fill="#333" fill-rule="evenodd"/><path d="M91.4,36.12,92.84,40l25.42-9.51-.59-1.57a2.44,2.44,0,0,0-3.14-1.43h0Z" fill="#333" fill-rule="evenodd"/><polygon points="67.7 63.1 90.33 72.29 88.04 67.61 69.19 59.63 67.7 63.1" fill-rule="evenodd" opacity="0.05" style="isolation:isolate"/><polygon points="100.14 66.08 94.48 68.14 94.48 39.29 99.88 37.24 100.14 66.08" fill-rule="evenodd" opacity="0.05" style="isolation:isolate"/><polygon points="74.4 59.5 68.72 61.69 68.72 30.92 74.14 28.74 74.4 59.5" fill-rule="evenodd" opacity="0.05" style="isolation:isolate"/><polygon points="100.92 35.43 94.48 38.77 72.23 28.64 78.77 26.41 100.92 35.43" fill-rule="evenodd" opacity="0.1" style="isolation:isolate"/><polygon points="98.35 21.53 82.64 27.96 76.7 25.64 92.93 19.46 98.35 21.53" fill-rule="evenodd" opacity="0.1" style="isolation:isolate"/><g style="isolation:isolate"><path d="M18.26,16.41H33.63a40.35,40.35,0,0,1,11,1.13,10.9,10.9,0,0,1,6.06,4.59Q53,25.58,53,33.26c0,3.46-.54,5.88-1.62,7.24S48.17,42.92,45,43.65c3.57.8,6,2.14,7.25,4s1.9,4.72,1.9,8.58v5.49c0,4-.46,7-1.37,8.9a7.37,7.37,0,0,1-4.37,4q-3,1.07-12.3,1.06H18.26ZM33.67,26.54V39.71l1.53,0c1.52,0,2.48-.38,2.9-1.12s.62-2.87.62-6.38a10.35,10.35,0,0,0-.51-3.9,2.48,2.48,0,0,0-1.34-1.41A11.92,11.92,0,0,0,33.67,26.54Zm0,22.39V65.51c2.17-.07,3.55-.42,4.15-1s.9-2.1.9-4.5V54.46c0-2.54-.27-4.07-.81-4.61S36,49,33.67,48.93Z" fill="#333"/></g><g style="isolation:isolate"><path d="M160.48,15.13l-5.42,26.2,8.16,33H149a197.11,197.11,0,0,1-4.68-21.59q-.59,5.64-1.63,11.93l-1.44,9.66h-15l5.6-33-5.6-26.2h14.89c.28,1.63.81,4.35,1.61,8.16.65,2.9,1.17,5.57,1.58,8l3.29-16.17Z" fill="#333"/></g><g style="isolation:isolate"><path d="M188.44,15.91V63.29h9.37V75.15H173V15.91Z" fill="#333"/></g></svg>